<svg xmlns="http://www.w3.org/2000/svg" viewBox="0 0 140 120" role="img" aria-label="Mature Malabar spinach illustration">
 <defs><linearGradient id="l" x1="0" y1="0" x2="1" y2="1"><stop stop-color="#76bd60"/><stop offset="1" stop-color="#286c46"/></linearGradient></defs><ellipse cx="70" cy="108" rx="44" ry="7" fill="#263f2c" opacity=".16"/>
 <g fill="none" stroke="#bea98b" stroke-width="3"><path d="M34 105V15m36 90V11m36 94V15M30 36h80M30 69h80"/></g><path d="M42 104c-13-21 13-29 4-49-8-19 20-25 9-43M76 104c18-18-7-30 11-47 13-13-4-29 12-43" fill="none" stroke="#a53d74" stroke-width="7" stroke-linecap="round"/>
 <g fill="url(#l)" stroke="#336d45" stroke-width="1.6"><path d="M42 84c-17-1-25-14-19-27 15-3 27 8 19 27Z"/><path d="M48 56c-14-7-17-21-8-31 15 3 22 17 8 31Z"/><path d="M58 31c-8-13-3-26 10-31 12 9 11 23-10 31Z"/><path d="M80 84c-3-17 8-28 23-27 6 14-3 27-23 27Z"/><path d="M88 56c-4-16 6-27 21-27 6 14-3 27-21 27Z"/><path d="M98 31c-3-15 7-25 21-24 5 14-4 25-21 24Z"/></g>
 <g fill="#44244f" stroke="#26172d" stroke-width="1"><circle cx="54" cy="69" r="4"/><circle cx="61" cy="64" r="4"/><circle cx="66" cy="70" r="3.5"/></g><path d="M25 106h91" stroke="#8e613d" stroke-width="4" stroke-linecap="round"/>
</svg>
