<svg xmlns="http://www.w3.org/2000/svg" viewBox="-15 -20 155 130" role="img" aria-label="Mature sweet-potato shoots illustration">
  <defs><linearGradient id="leaf" x1="0" y1="0" x2="1" y2="1"><stop stop-color="#91bd4d"/><stop offset=".55" stop-color="#4c8943"/><stop offset="1" stop-color="#58315d"/></linearGradient><filter id="paint"><feTurbulence baseFrequency=".045" numOctaves="2" seed="31" result="n"/><feDisplacementMap in="SourceGraphic" in2="n" scale=".9"/></filter></defs>
  <ellipse cx="60" cy="90" rx="46" ry="7" fill="#173a2b" opacity=".17"/>
  <g filter="url(#paint)" stroke-linecap="round" stroke-linejoin="round">
    <path d="M5 83c19-15 35-8 47-22s32-11 61-31M35 74c-5-18-3-34 8-48M64 54c2-17 11-31 25-41M78 47c10 7 18 18 21 32" fill="none" stroke="#704a63" stroke-width="4"/>
    <path d="M42 31c-11 1-19-6-19-16 6 1 10 1 15-2 2-5 4-8 7-12 4 5 6 8 7 13 4 4 9 4 15 4-2 10-11 16-22 14Z" fill="url(#leaf)" stroke="#47653f"/>
    <path d="M88 18c-11 2-20-5-21-15 6 1 11 0 15-3 1-5 3-9 6-13 5 4 7 8 9 13 4 3 9 3 15 3-1 10-10 17-21 16Z" fill="url(#leaf)" stroke="#47653f"/>
    <path d="M31 74c-11 3-21-3-23-13 6 0 11-1 14-5 1-5 2-9 5-14 5 4 8 7 10 12 5 3 10 2 16 2 0 10-8 18-20 19Z" fill="url(#leaf)" stroke="#47653f"/>
    <path d="M63 59c-11 2-20-5-21-15 6 1 11 0 15-3 1-5 3-9 6-13 5 4 7 8 9 13 4 3 9 3 15 3-1 10-10 17-21 16Z" fill="url(#leaf)" stroke="#47653f"/>
    <path d="M99 79c-11 2-20-5-21-15 6 1 11 0 15-3 1-5 3-9 6-13 5 4 7 8 9 13 4 3 9 3 15 3-1 10-10 17-21 16Z" fill="url(#leaf)" stroke="#47653f"/>
    <path d="M10 88c27-6 72-6 100 0" fill="none" stroke="#916743" stroke-width="5"/>
  </g>
</svg>
